{"title":"The Prodigal Son 1981 BRRip 720p x264 Chinese ESubs - PRiSTiNE [","uid":8428223,"size":636945290,"categoryP":"video","categoryS":"hd___movies","magnet":"?xt=urn:btih:ab4f998c2e9fc910f86e66acbc94bedc292ddeef&amp;dn=The+Prodigal+Son+1981+BRRip+720p+x264+Chinese+ESubs+-+PRiSTiNE+%5B&amp;tr=udp%3A%2F%2Ftracker.openbittorrent.com%3A80&amp;tr=udp%3A%2F%2Fopen.demonii.com%3A1337&amp;tr=udp%3A%2F%2Ftracker.coppersurfer.tk%3A6969&amp;tr=udp%3A%2F%2Fexodus.desync.com%3A6969","seeders":1,"leechers":0,"uploader":"Vitamin_X","files":5,"time":1367415498,"description":"_________________________  Visit us at _________________________\n  &lt;a href=&quot;\nhttp://p2pdl.com&quot; rel=&quot;nofollow&quot; target=&quot;_NEW&quot;&gt;\nhttp://p2pdl.com&lt;/a&gt;  ____________________________ &lt;a href=&quot; http://p2pdl.com&quot; rel=&quot;nofollow&quot; target=&quot;_NEW&quot;&gt; http://p2pdl.com&lt;/a&gt;\n\n\nThe Prodigal Son 1981 BRRip 720p x264 Chinese ESubs - PRiSTiNE [P2PDL]\n\nGenre: Action | Comedy\nPlot: A rich man's son (Yuen Biao) believes himself to be the \nbest kung fu fighter in Canton. Unfortunately, his father, \nanxious for his son's safety, bribes all his opponents to lose. \nAfter a humiliating defeat at the hands of an actor in a \ntraveling theatre company, the son resolves to find a better teacher. \nFurious kung fu battles and slapstick comedy.\nDirector: Sammo Hung Kam-Bo\nStars: Yuen Biao, Ching-Ying Lam, Sammo Hung Kam-Bo\nRated: Rated R for martial arts violence\n\nInfo: &lt;a href=&quot;\nhttp://www.imdb.com/title/tt0085211/&quot; rel=&quot;nofollow&quot; target=&quot;_NEW&quot;&gt;\nhttp://www.imdb.com/title/tt0085211/&lt;/a&gt;\n\nGeneral\nComplete name                  : The Prodigal Son 1981 BRRip 720p x264 Chinese ESubs - PRiSTiNE.mp4\nFormat                         : MPEG-4\nFile size                      : 601 MiB\nDuration                       : 1h 44mn\nOverall bit rate mode          : Variable\nOverall bit rate               : 806 Kbps\n\nVideo\nFormat                         : AVC\nFormat/Info                    : Advanced Video Codec\nFormat profile                 : High &lt;a class=&quot;__cf_email__&quot; href=&quot;/cdn-cgi/l/email-protection&quot; data-cfemail=&quot;facbcabab6ced4cb&quot;&gt;[email&amp;#160;protected]&lt;/a&gt;&lt;script data-cfhash='f9e31' type=&quot;text/javascript&quot;&gt;\n/* &lt;![CDATA[ */!function(){try{var t=&quot;currentScript&quot;in document?document.currentScript:function(){for(var t=document.getElementsByTagName(&quot;script&quot;),e=t.length;e--;)if(t[e].getAttribute(&quot;data-cfhash&quot;))return t[e]}();if(t&amp;&amp;t.previousSibling){var e,r,n,i,c=t.previousSibling,a=c.getAttribute(&quot;data-cfemail&quot;);if(a){for(e=&quot;&quot;,r=parseInt(a.substr(0,2),16),n=2;a.length-n;n+=2)i=parseInt(a.substr(n,2),16)^r,e+=String.fromCharCode(i);e=document.createTextNode(e),c.parentNode.replaceChild(e,c)}t.parentNode.removeChild(t);}}catch(u){}}()/* ]]&gt; */&lt;/script&gt;\nBit rate                       : 723 Kbps\nWidth                          : 1 280 pixels\nHeight                         : 540 pixels\nDisplay aspect ratio           : 2.40:1\nFrame rate mode                : Constant\nFrame rate                     : 23.976 fps\nBit depth                      : 10 bits\nStream size                    : 539 MiB (90%)\nWriting library                : x264 core 130 r2273 b3065e6\n\nAudio\nFormat                         : AAC\nFormat/Info                    : Advanced Audio Codec\nBit rate                       : 80.0 Kbps\nChannel(s)                     : 2 channels\nChannel positions              : Front: L R\nSampling rate                  : 48.0 KHz / 24.0 KHz\nStream size                    : 59.5 MiB (10%)\nLanguage                       : Chinese\n\nSubtitle                       : Yes (English)\nSource                         : 720p.BluRay.x264-HDWinG (Thanks)\n\nScreenshots:\n &lt;a href=&quot;\nhttp://www.ultraimg.com/images/9K5LO.jpg&quot; rel=&quot;nofollow&quot; target=&quot;_NEW&quot;&gt;\nhttp://www.ultraimg.com/images/9K5LO.jpg&lt;/a&gt; &lt;a href=&quot;\nhttp://www.ultraimg.com/images/JY8kD.jpg&quot; rel=&quot;nofollow&quot; target=&quot;_NEW&quot;&gt;\nhttp://www.ultraimg.com/images/JY8kD.jpg&lt;/a&gt; &lt;a href=&quot;\nhttp://www.ultraimg.com/images/1TtPq.jpg&quot; rel=&quot;nofollow&quot; target=&quot;_NEW&quot;&gt;\nhttp://www.ultraimg.com/images/1TtPq.jpg&lt;/a&gt; &lt;a href=&quot;\nhttp://www.ultraimg.com/images/QSx6F.jpg&quot; rel=&quot;nofollow&quot; target=&quot;_NEW&quot;&gt;\nhttp://www.ultraimg.com/images/QSx6F.jpg&lt;/a&gt; &lt;a href=&quot;\nhttp://www.ultraimg.com/images/B2W1.jpg&quot; rel=&quot;nofollow&quot; target=&quot;_NEW&quot;&gt;\nhttp://www.ultraimg.com/images/B2W1.jpg&lt;/a&gt; &lt;a href=&quot;\nhttp://www.ultraimg.com/images/861gb.jpg&quot; rel=&quot;nofollow&quot; target=&quot;_NEW&quot;&gt;\nhttp://www.ultraimg.com/images/861gb.jpg&lt;/a&gt; &lt;a href=&quot;\nhttp://www.ultraimg.com/images/w4mYe.jpg&quot; rel=&quot;nofollow&quot; target=&quot;_NEW&quot;&gt;\nhttp://www.ultraimg.com/images/w4mYe.jpg&lt;/a&gt; &lt;a href=&quot;\nhttp://www.ultraimg.com/images/rS6Z.jpg&quot; rel=&quot;nofollow&quot; target=&quot;_NEW&quot;&gt;\nhttp://www.ultraimg.com/images/rS6Z.jpg&lt;/a&gt;\n\n----------------------------------------------------------------------------------------------------\n\n\nEncoded using revolutionary 10bit encoding, which enables us to provide you more crispier \nand sharper images at small sizes, just make sure you follow our instructions without a fault.\nRecommend to you to use latest version of VLC player. Install K-Lite Codec Pack or shark007 codecs\nin case of any kind of problem in playback (For non-VLC Media Player users). Alternatively, install\nCore AVC codecs, the fastest decoder that there is coupled with Community Center Codec Pack and play\non Windows Media Player Classic. Check sample to be sure.\nEnjoy!\n\nEncoder Notes:Looking For Early Access To Anything You Can Provide DVDScr, R5, DVDR, BluRay, Direct\nAudio, Music Releases and Seedboxes. We require dedicated servers, so as to do more \nand fast releases of movies.\nIf You Got anything to offer please contact us at &quot;&lt;a class=&quot;__cf_email__&quot; href=&quot;/cdn-cgi/l/email-protection&quot; data-cfemail=&quot;35454752755d40465d1b565a58&quot;&gt;[email&amp;#160;protected]&lt;/a&gt;&lt;script data-cfhash='f9e31' type=&quot;text/javascript&quot;&gt;\n/* &lt;![CDATA[ */!function(){try{var t=&quot;currentScript&quot;in document?document.currentScript:function(){for(var t=document.getElementsByTagName(&quot;script&quot;),e=t.length;e--;)if(t[e].getAttribute(&quot;data-cfhash&quot;))return t[e]}();if(t&amp;&amp;t.previousSibling){var e,r,n,i,c=t.previousSibling,a=c.getAttribute(&quot;data-cfemail&quot;);if(a){for(e=&quot;&quot;,r=parseInt(a.substr(0,2),16),n=2;a.length-n;n+=2)i=parseInt(a.substr(n,2),16)^r,e+=String.fromCharCode(i);e=document.createTextNode(e),c.parentNode.replaceChild(e,c)}t.parentNode.removeChild(t);}}catch(u){}}()/* ]]&gt; */&lt;/script&gt;&quot;.\n\nFace book Fan Page:   &lt;a href=&quot;\nhttp://www.fb.me/p2pdl&quot; rel=&quot;nofollow&quot; target=&quot;_NEW&quot;&gt;\nhttp://www.fb.me/p2pdl&lt;/a&gt;","torrent":{"xt":"urn:btih:ab4f998c2e9fc910f86e66acbc94bedc292ddeef","amp;dn":"The+Prodigal+Son+1981+BRRip+720p+x264+Chinese+ESubs+-+PRiSTiNE+%5B","amp;tr":["udp%3A%2F%2Ftracker.openbittorrent.com%3A80","udp%3A%2F%2Fopen.demonii.com%3A1337","udp%3A%2F%2Ftracker.coppersurfer.tk%3A6969","udp%3A%2F%2Fexodus.desync.com%3A6969"],"infoHash":"ab4f998c2e9fc910f86e66acbc94bedc292ddeef","infoHashBuffer":{"type":"Buffer","data":[171,79,153,140,46,159,201,16,248,110,102,172,188,148,190,220,41,45,222,239]},"announce":[],"urlList":[]}}